<svg width="140" height="105" viewBox="0 0 140 105" fill="none" xmlns="http://www.w3.org/2000/svg">
<path d="M24.848 75.864C21.056 75.864 18.056 75.312 15.848 74.208C13.688 73.056 11.552 71.28 9.44 68.88L15.416 62.76C16.856 64.68 18.224 66.024 19.52 66.792C20.864 67.56 22.544 67.944 24.56 67.944C27.632 67.944 29.936 67.272 31.472 65.928C33.056 64.536 33.848 62.52 33.848 59.88V24.6H44V59.88C44 65.16 42.368 69.144 39.104 71.832C35.888 74.52 31.136 75.864 24.848 75.864Z" fill="white"/>
<path d="M75.992 55.872H60.648L58.016 65H50.12L59.696 33.752C60.368 31.512 61.0773 29.776 61.824 28.544C62.5707 27.312 63.448 26.4347 64.456 25.912C65.5013 25.3893 66.7893 25.128 68.32 25.128C69.8507 25.128 71.12 25.3893 72.128 25.912C73.136 26.4347 74.0133 27.312 74.76 28.544C75.544 29.776 76.272 31.512 76.944 33.752L86.52 65H78.624L75.992 55.872ZM74.256 49.992L69.552 33.864C69.2907 32.8933 68.88 32.408 68.32 32.408C67.76 32.408 67.3493 32.8933 67.088 33.864L62.384 49.992H74.256ZM92.4241 25.8H109.672C113.779 25.8 116.915 26.696 119.08 28.488C121.283 30.28 122.384 32.8747 122.384 36.272C122.384 38.1387 121.824 39.8187 120.704 41.312C119.584 42.8053 117.96 43.832 115.832 44.392C118.147 44.84 120.013 45.9227 121.432 47.64C122.851 49.32 123.56 51.5227 123.56 54.248C123.56 57.5707 122.384 60.2027 120.032 62.144C117.717 64.048 114.544 65 110.512 65H92.4241V25.8ZM109.504 41.592C110.997 41.592 112.192 41.1627 113.088 40.304C114.021 39.408 114.488 38.232 114.488 36.776C114.488 35.32 114.021 34.1627 113.088 33.304C112.192 32.408 110.997 31.96 109.504 31.96H100.32V41.592H109.504ZM108.832 58.84C111.147 58.84 112.864 58.392 113.984 57.496C115.104 56.5627 115.664 55.1627 115.664 53.296C115.664 51.4293 115.104 50.048 113.984 49.152C112.864 48.2187 111.147 47.752 108.832 47.752H100.32V58.84H108.832Z" fill="white"/>
<path d="M2 103C19.5238 89.0152 71.2571 63.1728 138 71.6819" stroke="url(#paint0_linear_16_7)" stroke-width="3" stroke-miterlimit="1.41421" stroke-linecap="round" stroke-linejoin="round"/>
<defs>
<linearGradient id="paint0_linear_16_7" x1="121" y1="42.5" x2="70" y2="103" gradientUnits="userSpaceOnUse">
<stop stop-color="#9B52E0"/>
<stop offset="1" stop-color="#D400FF"/>
</linearGradient>
</defs>
</svg>
